<mxfile host="app.diagrams.net" agent="Mozilla/5.0 (Windows NT 10.0; Win64; x64; rv:128.0) Gecko/20100101 Firefox/128.0" version="24.7.4">
  <diagram name="Page-1" id="2m1zQyBQIh7P-2sPe487">
    <mxGraphModel dx="733" dy="368" grid="1" gridSize="10" guides="1" tooltips="1" connect="1" arrows="1" fold="1" page="1" pageScale="1" pageWidth="850" pageHeight="1100" math="0" shadow="0">
      <root>
        <mxCell id="0" />
        <mxCell id="1" parent="0" />
        <mxCell id="BtSD0RnX7i3V4XZWgaUH-19" value="" style="edgeStyle=orthogonalEdgeStyle;rounded=0;orthogonalLoop=1;jettySize=auto;html=1;" edge="1" parent="1" source="BtSD0RnX7i3V4XZWgaUH-11" target="BtSD0RnX7i3V4XZWgaUH-18">
          <mxGeometry relative="1" as="geometry" />
        </mxCell>
        <mxCell id="BtSD0RnX7i3V4XZWgaUH-11" value="" style="html=1;shadow=0;dashed=0;align=center;verticalAlign=middle;shape=mxgraph.arrows2.arrow;dy=0.6;dx=40;notch=0;fillColor=#dae8fc;strokeColor=#6c8ebf;" vertex="1" parent="1">
          <mxGeometry x="420" y="180" width="180" height="70" as="geometry" />
        </mxCell>
        <mxCell id="BtSD0RnX7i3V4XZWgaUH-21" value="" style="edgeStyle=orthogonalEdgeStyle;rounded=0;orthogonalLoop=1;jettySize=auto;html=1;" edge="1" parent="1" source="BtSD0RnX7i3V4XZWgaUH-13" target="BtSD0RnX7i3V4XZWgaUH-20">
          <mxGeometry relative="1" as="geometry" />
        </mxCell>
        <mxCell id="BtSD0RnX7i3V4XZWgaUH-13" value="" style="html=1;shadow=0;dashed=0;align=center;verticalAlign=middle;shape=mxgraph.arrows2.arrow;dy=0.6;dx=40;notch=0;fillColor=#dae8fc;strokeColor=#6c8ebf;" vertex="1" parent="1">
          <mxGeometry x="420" y="255" width="180" height="70" as="geometry" />
        </mxCell>
        <mxCell id="BtSD0RnX7i3V4XZWgaUH-23" value="" style="edgeStyle=orthogonalEdgeStyle;rounded=0;orthogonalLoop=1;jettySize=auto;html=1;" edge="1" parent="1" source="BtSD0RnX7i3V4XZWgaUH-14" target="BtSD0RnX7i3V4XZWgaUH-22">
          <mxGeometry relative="1" as="geometry" />
        </mxCell>
        <mxCell id="BtSD0RnX7i3V4XZWgaUH-14" value="" style="html=1;shadow=0;dashed=0;align=center;verticalAlign=middle;shape=mxgraph.arrows2.arrow;dy=0.6;dx=40;notch=0;fillColor=#dae8fc;strokeColor=#6c8ebf;" vertex="1" parent="1">
          <mxGeometry x="420" y="335" width="180" height="70" as="geometry" />
        </mxCell>
        <mxCell id="BtSD0RnX7i3V4XZWgaUH-1" value="Menu menu " style="html=1;whiteSpace=wrap;" vertex="1" parent="1">
          <mxGeometry x="240" y="190" width="110" height="50" as="geometry" />
        </mxCell>
        <mxCell id="BtSD0RnX7i3V4XZWgaUH-3" value="Login" style="shape=rhombus;perimeter=rhombusPerimeter;whiteSpace=wrap;html=1;align=center;" vertex="1" parent="1">
          <mxGeometry x="440" y="185" width="120" height="60" as="geometry" />
        </mxCell>
        <mxCell id="BtSD0RnX7i3V4XZWgaUH-24" style="edgeStyle=orthogonalEdgeStyle;rounded=0;orthogonalLoop=1;jettySize=auto;html=1;exitX=0.5;exitY=1;exitDx=0;exitDy=0;entryX=0.5;entryY=0;entryDx=0;entryDy=0;" edge="1" parent="1" source="BtSD0RnX7i3V4XZWgaUH-4" target="BtSD0RnX7i3V4XZWgaUH-1">
          <mxGeometry relative="1" as="geometry" />
        </mxCell>
        <mxCell id="BtSD0RnX7i3V4XZWgaUH-4" value="Menu" style="swimlane;fontStyle=1;align=center;verticalAlign=top;childLayout=stackLayout;horizontal=1;startSize=26;horizontalStack=0;resizeParent=1;resizeParentMax=0;resizeLast=0;collapsible=1;marginBottom=0;whiteSpace=wrap;html=1;" vertex="1" parent="1">
          <mxGeometry x="215" y="80" width="160" height="80" as="geometry" />
        </mxCell>
        <mxCell id="BtSD0RnX7i3V4XZWgaUH-5" value="Judul, Kalimat Isi, ..." style="text;strokeColor=none;fillColor=none;align=left;verticalAlign=top;spacingLeft=4;spacingRight=4;overflow=hidden;rotatable=0;points=[[0,0.5],[1,0.5]];portConstraint=eastwest;whiteSpace=wrap;html=1;" vertex="1" parent="BtSD0RnX7i3V4XZWgaUH-4">
          <mxGeometry y="26" width="160" height="24" as="geometry" />
        </mxCell>
        <mxCell id="BtSD0RnX7i3V4XZWgaUH-6" value="" style="line;strokeWidth=1;fillColor=none;align=left;verticalAlign=middle;spacingTop=-1;spacingLeft=3;spacingRight=3;rotatable=0;labelPosition=right;points=[];portConstraint=eastwest;strokeColor=inherit;" vertex="1" parent="BtSD0RnX7i3V4XZWgaUH-4">
          <mxGeometry y="50" width="160" height="8" as="geometry" />
        </mxCell>
        <mxCell id="BtSD0RnX7i3V4XZWgaUH-7" value="Tampilkan(), Inputan(), ..." style="text;strokeColor=none;fillColor=none;align=left;verticalAlign=top;spacingLeft=4;spacingRight=4;overflow=hidden;rotatable=0;points=[[0,0.5],[1,0.5]];portConstraint=eastwest;whiteSpace=wrap;html=1;" vertex="1" parent="BtSD0RnX7i3V4XZWgaUH-4">
          <mxGeometry y="58" width="160" height="22" as="geometry" />
        </mxCell>
        <mxCell id="BtSD0RnX7i3V4XZWgaUH-9" value="Dashboard" style="shape=rhombus;perimeter=rhombusPerimeter;whiteSpace=wrap;html=1;align=center;" vertex="1" parent="1">
          <mxGeometry x="440" y="260" width="120" height="60" as="geometry" />
        </mxCell>
        <mxCell id="BtSD0RnX7i3V4XZWgaUH-10" value="Biodata" style="shape=rhombus;perimeter=rhombusPerimeter;whiteSpace=wrap;html=1;align=center;" vertex="1" parent="1">
          <mxGeometry x="440" y="340" width="120" height="60" as="geometry" />
        </mxCell>
        <mxCell id="BtSD0RnX7i3V4XZWgaUH-15" style="edgeStyle=orthogonalEdgeStyle;rounded=0;orthogonalLoop=1;jettySize=auto;html=1;exitX=1;exitY=0.5;exitDx=0;exitDy=0;entryX=0;entryY=0.5;entryDx=0;entryDy=0;entryPerimeter=0;" edge="1" parent="1" source="BtSD0RnX7i3V4XZWgaUH-1" target="BtSD0RnX7i3V4XZWgaUH-11">
          <mxGeometry relative="1" as="geometry">
            <Array as="points">
              <mxPoint x="370" y="215" />
              <mxPoint x="370" y="215" />
            </Array>
          </mxGeometry>
        </mxCell>
        <mxCell id="BtSD0RnX7i3V4XZWgaUH-16" style="edgeStyle=orthogonalEdgeStyle;rounded=0;orthogonalLoop=1;jettySize=auto;html=1;exitX=1;exitY=0.5;exitDx=0;exitDy=0;entryX=0;entryY=0.5;entryDx=0;entryDy=0;entryPerimeter=0;" edge="1" parent="1" source="BtSD0RnX7i3V4XZWgaUH-1" target="BtSD0RnX7i3V4XZWgaUH-13">
          <mxGeometry relative="1" as="geometry">
            <Array as="points">
              <mxPoint x="385" y="215" />
              <mxPoint x="385" y="290" />
            </Array>
          </mxGeometry>
        </mxCell>
        <mxCell id="BtSD0RnX7i3V4XZWgaUH-17" style="edgeStyle=orthogonalEdgeStyle;rounded=0;orthogonalLoop=1;jettySize=auto;html=1;exitX=1;exitY=0.5;exitDx=0;exitDy=0;entryX=0;entryY=0.5;entryDx=0;entryDy=0;entryPerimeter=0;" edge="1" parent="1" source="BtSD0RnX7i3V4XZWgaUH-1" target="BtSD0RnX7i3V4XZWgaUH-14">
          <mxGeometry relative="1" as="geometry" />
        </mxCell>
        <mxCell id="BtSD0RnX7i3V4XZWgaUH-18" value="Menu Login" style="whiteSpace=wrap;html=1;shadow=0;dashed=0;" vertex="1" parent="1">
          <mxGeometry x="640" y="185" width="120" height="60" as="geometry" />
        </mxCell>
        <mxCell id="BtSD0RnX7i3V4XZWgaUH-20" value="Menu Dashboard" style="whiteSpace=wrap;html=1;shadow=0;dashed=0;" vertex="1" parent="1">
          <mxGeometry x="640" y="260" width="120" height="60" as="geometry" />
        </mxCell>
        <mxCell id="BtSD0RnX7i3V4XZWgaUH-22" value="Menu Biodata" style="whiteSpace=wrap;html=1;shadow=0;dashed=0;" vertex="1" parent="1">
          <mxGeometry x="640" y="340" width="120" height="60" as="geometry" />
        </mxCell>
        <mxCell id="BtSD0RnX7i3V4XZWgaUH-25" value="Dsb" style="text;html=1;align=center;verticalAlign=middle;resizable=0;points=[];autosize=1;strokeColor=none;fillColor=none;fontSize=24;" vertex="1" parent="1">
          <mxGeometry x="465" y="420" width="70" height="40" as="geometry" />
        </mxCell>
      </root>
    </mxGraphModel>
  </diagram>
</mxfile>
